<svg xmlns="http://www.w3.org/2000/svg" width="3.81cm" height="3.81cm" viewBox="0 0 108 108"><rect x="-0.07" width="108.14" height="108" fill="#fff"/><rect x="-0.07" width="108.14" height="36.05" fill="#74acdf"/><rect x="-0.07" y="71.95" width="108.14" height="36.05" fill="#74acdf"/><polygon points="54 46.36 56.95 39.08 56.9 46.93 62.41 41.34 59.35 48.58 66.59 45.52 60.99 51.03 68.85 50.97 61.57 53.93 68.85 56.88 60.99 56.83 66.59 62.34 59.35 59.28 62.41 66.52 56.9 60.92 56.95 68.78 54 61.5 51.05 68.78 51.1 60.92 45.59 66.52 48.65 59.28 41.41 62.34 47.01 56.83 39.15 56.88 46.43 53.93 39.15 50.97 47.01 51.03 41.41 45.52 48.65 48.58 45.59 41.34 51.1 46.93 51.05 39.08 54 46.36" fill="#85350a"/><polygon points="52.55 46.5 54.07 38.79 55.51 46.51 59.86 39.96 58.23 47.65 64.75 43.27 60.31 49.75 68.02 48.2 61.43 52.48 69.14 53.99 61.42 55.44 67.96 59.78 60.28 58.16 64.66 64.68 58.18 60.24 59.73 67.94 55.45 61.36 53.93 69.07 52.49 61.35 48.14 67.89 49.77 60.2 43.25 64.59 47.69 58.11 39.98 59.66 46.57 55.37 38.86 53.86 46.58 52.42 40.04 48.07 47.72 49.7 43.34 43.17 49.82 47.62 48.27 39.91 52.55 46.5" fill="#f6b40e"/></svg>