<svg xmlns="http://www.w3.org/2000/svg" width="92.34" height="82.539" viewBox="0 0 92.34 82.539">
  <g id="Grupo_12" data-name="Grupo 12" transform="translate(-332.753 -926)">
    <path id="Trazado_2" data-name="Trazado 2" d="M326.082,88.509h-88.5a1.911,1.911,0,0,1-1.537-3.046l35.587-47.742a1.882,1.882,0,0,1,1.566-.761,1.911,1.911,0,0,1,1.537.833L291.371,62l8.893-11.939a1.94,1.94,0,0,1,1.566-.761,1.911,1.911,0,0,1,1.537.819l24.309,35.4a1.911,1.911,0,0,1-1.566,2.988Zm-84.766-3.822h81.116L301.672,54.517l-8.893,11.939a2.054,2.054,0,0,1-1.566.776,1.925,1.925,0,0,1-1.537-.833L273.068,42.147Z" transform="translate(97.083 920.029)" fill="#222"/>
    <circle id="Elipse_5" data-name="Elipse 5" cx="1.71" cy="1.71" r="1.71" transform="translate(414.402 926)" fill="#222"/>
    <circle id="Elipse_6" data-name="Elipse 6" cx="1.552" cy="1.552" r="1.552" transform="translate(414.89 944.031)" fill="#222"/>
    <circle id="Elipse_7" data-name="Elipse 7" cx="1.767" cy="1.767" r="1.767" transform="translate(391.931 926.819)" fill="#222"/>
    <circle id="Elipse_8" data-name="Elipse 8" cx="2.026" cy="2.026" r="2.026" transform="translate(385.941 954.203)" fill="#222"/>
  </g>
</svg>
