<svg xmlns="http://www.w3.org/2000/svg" width="31.508" height="28.164" viewBox="0 0 31.508 28.164">
  <g id="Grupo_11" data-name="Grupo 11" transform="translate(-332.753 -926)">
    <path id="Trazado_2" data-name="Trazado 2" d="M266.52,54.549h-30.2a.652.652,0,0,1-.525-1.039L247.94,37.22a.642.642,0,0,1,.534-.26.652.652,0,0,1,.525.284l5.677,8.26,3.035-4.074a.662.662,0,0,1,.534-.26.652.652,0,0,1,.525.279l8.295,12.079a.652.652,0,0,1-.534,1.02Zm-28.924-1.3h27.678L258.191,42.95l-3.035,4.074a.7.7,0,0,1-.534.265A.657.657,0,0,1,254.1,47l-5.667-8.275Z" transform="translate(97.084 899.615)" fill="#fff"/>
    <circle id="Elipse_5" data-name="Elipse 5" cx="0.583" cy="0.583" r="0.583" transform="translate(360.613 926)" fill="#fff"/>
    <circle id="Elipse_6" data-name="Elipse 6" cx="0.529" cy="0.529" r="0.529" transform="translate(360.78 932.152)" fill="#fff"/>
    <circle id="Elipse_7" data-name="Elipse 7" cx="0.603" cy="0.603" r="0.603" transform="translate(352.946 926.279)" fill="#fff"/>
    <circle id="Elipse_8" data-name="Elipse 8" cx="0.691" cy="0.691" r="0.691" transform="translate(350.902 935.623)" fill="#fff"/>
  </g>
</svg>
