<svg xmlns="http://www.w3.org/2000/svg" width="3.81cm" height="3.81cm" viewBox="0 0 108 108"><rect x="0.39" width="108.14" height="12.01" fill="#fff"/><rect x="0.39" y="12.02" width="108.14" height="12.01" fill="#0038a8"/><rect x="0.39" y="24.03" width="108.14" height="12.01" fill="#fff"/><rect x="0.39" y="36.05" width="108.14" height="12.01" fill="#0038a8"/><rect x="0.39" y="47.92" width="108.14" height="12.01" fill="#fff"/><rect x="-0.61" y="59.8" width="108.61" height="12.01" fill="#0038a8"/><rect x="-2.38" y="71.67" width="110.91" height="12.01" fill="#fff"/><rect x="-0.61" y="83.54" width="109.14" height="12.01" fill="#0038a8"/><rect x="-0.61" y="95.42" width="109.14" height="12.58" fill="#fff"/><rect x="-0.54" width="55" height="59.8" fill="#fff"/><polygon points="27.43 20.89 34.33 13.25 33.8 23.52 44.08 23 36.44 29.9 44.08 36.8 33.8 36.27 34.33 46.55 27.43 38.91 20.53 46.55 21.06 36.27 10.78 36.8 18.42 29.9 10.78 23 21.06 23.52 20.53 13.25 27.43 20.89" fill="#7b3f00"/><polygon points="24.05 21.54 27.59 11.87 30.95 21.6 40.28 17.26 35.78 26.52 45.45 30.05 35.73 33.42 40.06 42.75 30.8 38.25 27.27 47.92 23.91 38.19 14.57 42.53 19.07 33.27 9.41 29.74 19.13 26.38 14.8 17.04 24.05 21.54" fill="#fcd116"/></svg>